<svg width="108" height="69" viewBox="0 0 108 69" fill="none" xmlns="http://www.w3.org/2000/svg">
<path d="M33.1678 11.8594C33.1678 18.1469 28.2212 23.2188 22.1499 23.2188C16.0785 23.2188 11.132 18.1469 11.132 11.8594C11.132 5.5719 16.0785 0.5 22.1499 0.5C28.2212 0.5 33.1678 5.5719 33.1678 11.8594Z" fill="#1EFF2D" stroke="black"/>
<path d="M98.7314 11.8594C98.7314 18.1469 93.7848 23.2188 87.7135 23.2188C81.6421 23.2188 76.6956 18.1469 76.6956 11.8594C76.6956 5.5719 81.6421 0.5 87.7135 0.5C93.7848 0.5 98.7314 5.5719 98.7314 11.8594Z" fill="#1EFF2D" stroke="black"/>
<path d="M94 11.5378C94 14.5545 91.6225 17 88.6897 17C85.7568 17 83.3793 14.5545 83.3793 11.5378C83.3793 8.52106 85.7568 6.07553 88.6897 6.07553C91.6225 6.07553 94 8.52106 94 11.5378Z" fill="black"/>
<path d="M27.6207 11.4622C27.6207 14.4789 25.2432 16.9244 22.3103 16.9244C19.3775 16.9244 17 14.4789 17 11.4622C17 8.44548 19.3775 5.99996 22.3103 5.99996C25.2432 5.99996 27.6207 8.44548 27.6207 11.4622Z" fill="black"/>
<path d="M22.9569 3.42857C22.9569 5.32212 23.5608 8 22.0375 8C20.5142 8 21.1181 5.32212 21.1181 3.42857C21.1181 1.14286 22.0375 0 22.9569 0C27.5538 0 22.9569 1.53502 22.9569 3.42857Z" fill="black"/>
<path d="M87.0431 3.42857C87.0431 5.32212 86.4392 8 87.9625 8C89.4858 8 88.8819 5.32212 88.8819 3.42857C88.8819 1.14286 87.9625 0 87.0431 0C82.4462 0 87.0431 1.53502 87.0431 3.42857Z" fill="black"/>
<path d="M13.3995 47.5C13.3995 59.3741 55.4664 69 35.7321 69C15.9978 69 0 59.3741 0 47.5C0 35.6259 15.9978 26 35.7321 26C55.4664 26 13.3995 35.6259 13.3995 47.5Z" fill="black"/>
<path d="M94.6005 47.5C94.6005 59.3741 52.5336 69 72.2679 69C92.0022 69 108 59.3741 108 47.5C108 35.6259 92.0022 26 72.2679 26C52.5336 26 94.6005 35.6259 94.6005 47.5Z" fill="black"/>
</svg>
